# xmcd CD database file
#
# Track frame offsets:
#	150
#	20822
#	60897
#	90910
#	137775
#	163607
#	192692
#	240982
#	263117
#	291732
#	329572
#
# Disc length: 4750 seconds
#
# Revision: 0
# Processed by: cddbd v1.5.2PL0 Copyright (c) Steve Scherf et al.
# Submitted via: CDex 1.70beta2
#
DISCID=a0128c0b
DTITLE=Mark C. Gridley - Concise Guide to JAZZ fifth edition Jazz Classics Disc 2
DYEAR=2007
DGENRE=Jazz
TTITLE0=Mr. Walker
TTITLE1=Solar
TTITLE2=Your Lady
TTITLE3=The Egyptian
TTITLE4=Dee-Dee (excerpt)
TTITLE5=Prince of Darkness
TTITLE6=Mars
TTITLE7=Captain Marvel
TTITLE8=Gregory Is Here
TTITLE9=The Wind-Up
TTITLE10=Birdland
EXTD=YEAR: 2007
EXTT0=
EXTT1=
EXTT2=
EXTT3=
EXTT4=
EXTT5=
EXTT6=
EXTT7=
EXTT8=
EXTT9=
EXTT10=
PLAYORDER=
